# xmcd
#
# Track frame offsets:
#	150
#	22717
#	35990
#	60185
#	73654
#	80861
#	97698
#	114705
#	122947
#	141447
#	162723
#	179027
#	204096
#
# Disc length: 3036 seconds
#
# Revision: 1
# Processed by: cddbd v1.5.2PL0 Copyright (c) Steve Scherf et al.
# Submitted via: EasyCDDAExtractor 7.0.5.1
#
DISCID=ba0bda0d
DTITLE=Quiet Monks - Quiet Monks - Oczko live 19.03.2004 part I
DYEAR=2004
DGENRE=country
TTITLE0=Quiet Monks - Blues - Quiet Monks -  Oczko live 19.03.2004.wav
TTITLE1=Quiet Monks - Get Back - Quiet Monks -  Oczko live 19.03.2004.wav
TTITLE2=Quiet Monks - I Shot The Sherrif - Quiet Monks -  Oczko live 19.03.200
TTITLE2=4.wav
TTITLE3=Quiet Monks - Tequila Sunrise - Quiet Monks -  Oczko live 19.03.2004.w
TTITLE3=av
TTITLE4=Quiet Monks - Domowe przedszkole - Quiet Monks -  Oczko live 19.03.200
TTITLE4=4.wav
TTITLE5=Quiet Monks - Tribute to Greg Allman - Quiet Monks -  Oczko live 19.03
TTITLE5=2004.wav
TTITLE6=Quiet Monks - Oni zaraz przyjda tu - Quiet Monks -  Oczko live 19.03.2
TTITLE6=004.wav
TTITLE7=Quiet Monks - instr. - Quiet Monks -  Oczko live 19.03.2004.wav
TTITLE8=Quiet Monks - Track 09 - Quiet Monks -  Oczko live 19.03.2004.wav
TTITLE9=Quiet Monks - Summertime - Quiet Monks -  Oczko live 19.03.2004.wav
TTITLE10=Quiet Monks - track 11 - Quiet Monks -  Oczko live 19.03.2004.wav
TTITLE11=Quiet Monks - Gipsy Woman - Quiet Monks -  Oczko live 19.03.2004.wav
TTITLE12=A Hard Day's Night - Oczko live 19.03.2004
EXTD=
EXTT0=
EXTT1=
EXTT2=
EXTT3=
EXTT4=
EXTT5=
EXTT6=
EXTT7=
EXTT8=
EXTT9=
EXTT10=
EXTT11=
EXTT12=
PLAYORDER=
